<svg width="52" height="50" viewBox="0 0 52 50" fill="none" xmlns="http://www.w3.org/2000/svg">
<g clip-path="url(#clip0_42_449)">
<path d="M48.4668 18.9312L49.7946 14.7192C49.7946 14.7192 46.1564 10.2431 40.2152 12.183C37.6872 13.0133 35.3618 14.455 33.5164 15.8439C34.2441 13.67 34.8817 11.0281 34.8817 8.38617C34.8817 2.09843 29.5257 0 29.5257 0L25.955 2.57397L22.3843 0C22.3843 0 17.0283 2.09843 17.0283 8.38617C17.0283 11.0658 17.6734 13.7379 18.416 15.9269C16.5857 14.5531 14.2827 13.1341 11.7848 12.3113C5.84362 10.3714 2.20542 14.8475 2.20542 14.8475L3.53318 19.0595L0 21.6787C0 21.6787 0.322562 27.4532 6.27121 29.3931C8.79919 30.2159 11.5222 30.4272 13.8252 30.397C11.9648 31.7255 9.9094 33.4843 8.36411 35.628C4.6884 40.7156 7.8015 45.5767 7.8015 45.5767L12.1898 45.6069L13.5776 49.7962C13.5776 49.7962 19.1362 51.2681 22.8119 46.1806C24.3722 44.0142 25.4149 41.4704 26.09 39.2588C26.7726 41.4478 27.8003 43.9614 29.3456 46.0975C33.0213 51.1851 38.5799 49.7132 38.5799 49.7132L39.9677 45.5239L44.356 45.4937C44.356 45.4937 47.4616 40.6325 43.7934 35.545C42.2331 33.3786 40.1477 31.6048 38.2649 30.2687C40.5453 30.2989 43.2383 30.08 45.7363 29.2648C51.6774 27.3249 52.0075 21.5504 52.0075 21.5504L48.4743 18.9312H48.4668ZM33.6965 20.7277C33.749 20.3427 33.974 20.003 34.3191 19.7992C34.9267 19.4444 35.7069 19.6558 36.0594 20.2672C36.412 20.8786 36.202 21.6636 35.5943 22.0184C35.2568 22.2147 34.8517 22.2449 34.4841 22.0939L31.7611 23.6715C31.6411 23.747 31.5061 23.7772 31.371 23.7772C31.101 23.7772 30.8309 23.6338 30.6884 23.3847C30.5834 23.2035 30.5534 22.9846 30.6059 22.7808C30.6584 22.577 30.7934 22.4034 30.9735 22.2977L33.6965 20.7201V20.7277ZM28.4905 20.2974L30.0658 17.5574C29.9233 17.195 29.9458 16.7874 30.1408 16.4402C30.3133 16.1458 30.5834 15.9345 30.9134 15.8439C31.2435 15.7533 31.5811 15.7986 31.8811 15.9722C32.4887 16.327 32.6988 17.112 32.3462 17.7234C32.1512 18.0631 31.8136 18.2896 31.4235 18.3499L29.8482 21.09C29.7432 21.2711 29.5707 21.407 29.3681 21.4598C29.3006 21.4749 29.2331 21.49 29.1656 21.49C29.0306 21.49 28.8956 21.4523 28.7755 21.3844C28.4005 21.1655 28.2729 20.6824 28.4905 20.305V20.2974ZM29.8707 25.9662C29.8707 28.1175 28.1304 29.8687 25.9925 29.8687C23.8546 29.8687 22.1143 28.1175 22.1143 25.9662C22.1143 23.8149 23.8546 22.0637 25.9925 22.0637C28.1304 22.0637 29.8707 23.8149 29.8707 25.9662ZM26.1275 14.3569C26.8327 14.3569 27.4028 14.9306 27.4028 15.6401C27.4028 16.0326 27.2227 16.4025 26.9152 16.644V19.8068C26.9152 20.2446 26.5626 20.5993 26.1275 20.5993C25.6924 20.5993 25.3399 20.2446 25.3399 19.8068V16.644C25.0323 16.4025 24.8523 16.0326 24.8523 15.6401C24.8523 14.9306 25.4224 14.3569 26.1275 14.3569ZM20.3439 15.8439C20.6365 15.6703 20.9815 15.625 21.3116 15.7156C21.6417 15.8062 21.9117 16.0175 22.0842 16.3119C22.2793 16.6516 22.3093 17.0592 22.1593 17.429L23.7271 20.1691C23.8321 20.3502 23.8621 20.5691 23.8096 20.7729C23.7571 20.9768 23.622 21.1504 23.442 21.256C23.322 21.324 23.187 21.3617 23.0519 21.3617C22.9844 21.3617 22.9169 21.3542 22.8494 21.3315C22.6469 21.2787 22.4743 21.1428 22.3693 20.9617L20.8015 18.2216C20.4189 18.1688 20.0739 17.9423 19.8788 17.5951C19.5263 16.9837 19.7363 16.1987 20.3439 15.8439ZM16.0756 20.0483C16.2481 19.7539 16.5182 19.5426 16.8482 19.452C17.1783 19.3614 17.5234 19.4067 17.8159 19.5803C18.1535 19.7766 18.3785 20.1162 18.4385 20.5088L21.1616 22.0864C21.3416 22.192 21.4766 22.3656 21.5291 22.5694C21.5816 22.7733 21.5591 22.9846 21.4466 23.1733C21.3041 23.43 21.034 23.5658 20.764 23.5658C20.629 23.5658 20.4939 23.5281 20.3739 23.4601L17.6509 21.8825C17.2908 22.026 16.8857 22.0033 16.5407 21.8071C15.9331 21.4523 15.723 20.6673 16.0756 20.0559V20.0483ZM14.4628 25.8379C14.4628 25.1283 15.0329 24.5546 15.738 24.5546C16.1281 24.5546 16.4957 24.7358 16.7357 25.0453H19.8788C20.3139 25.0453 20.6665 25.4001 20.6665 25.8379C20.6665 26.2757 20.3139 26.6304 19.8788 26.6304H16.7357C16.4957 26.9399 16.1281 27.1211 15.738 27.1211C15.0329 27.1211 14.4628 26.5474 14.4628 25.8379ZM17.6809 32.1332C17.4859 32.2464 17.2683 32.3068 17.0433 32.3068C16.9308 32.3068 16.8182 32.2917 16.7132 32.2615C16.3832 32.1709 16.1131 31.9595 15.9406 31.6652C15.768 31.3708 15.723 31.0236 15.813 30.6914C15.9031 30.3593 16.1131 30.0876 16.4057 29.914C16.7432 29.7177 17.1483 29.6875 17.5159 29.8385L20.2389 28.2533C20.614 28.0344 21.0941 28.1703 21.3116 28.5477C21.4166 28.7289 21.4466 28.9478 21.3866 29.1516C21.3341 29.3554 21.1991 29.529 21.019 29.6347L18.296 31.2198C18.2435 31.6048 18.0185 31.9444 17.6734 32.1483L17.6809 32.1332ZM23.502 31.6425L21.9342 34.3825C22.0767 34.7449 22.0542 35.1525 21.8592 35.4997C21.6267 35.9073 21.1916 36.1413 20.7565 36.1413C20.5389 36.1413 20.3214 36.0885 20.1189 35.9677C19.8263 35.7941 19.6163 35.5223 19.5263 35.1902C19.4362 34.8581 19.4812 34.5184 19.6538 34.2165C19.8488 33.8768 20.1864 33.6504 20.5765 33.59L22.1443 30.8499C22.3618 30.4725 22.8419 30.3442 23.217 30.5556C23.592 30.7745 23.7196 31.2575 23.502 31.635V31.6425ZM25.865 37.583C25.1598 37.583 24.5897 37.0094 24.5897 36.2998C24.5897 35.9073 24.7698 35.5374 25.0773 35.2959V32.1332C25.0773 31.6954 25.4299 31.3406 25.865 31.3406C26.3001 31.3406 26.6526 31.6954 26.6526 32.1332V35.2959C26.9602 35.5374 27.1402 35.9073 27.1402 36.2998C27.1402 37.0094 26.5701 37.583 25.865 37.583ZM32.2412 35.3185C32.1512 35.6507 31.9411 35.9224 31.6486 36.096C31.4535 36.2092 31.236 36.2696 31.011 36.2696C30.8984 36.2696 30.7859 36.2545 30.6809 36.2243C30.3508 36.1338 30.0808 35.9224 29.9083 35.628C29.7132 35.2883 29.6832 34.8807 29.8332 34.5109L28.2654 31.7708C28.0479 31.3934 28.1754 30.9028 28.5505 30.6914C28.7305 30.5858 28.9481 30.5556 29.1506 30.6084C29.3531 30.6612 29.5257 30.7971 29.6307 30.9783L31.1985 33.7183C31.5811 33.7711 31.9186 33.9976 32.1212 34.3448C32.2937 34.6392 32.3387 34.9864 32.2487 35.3185H32.2412ZM35.9169 31.8916C35.7444 32.186 35.4743 32.3973 35.1443 32.4879C35.0317 32.5181 34.9192 32.5332 34.8142 32.5332C34.5967 32.5332 34.3791 32.4728 34.1766 32.3596C33.839 32.1633 33.614 31.8237 33.554 31.4312L30.8309 29.846C30.6509 29.7403 30.5159 29.5667 30.4634 29.3629C30.4108 29.1591 30.4409 28.9478 30.5384 28.7591C30.7559 28.3816 31.236 28.2533 31.6111 28.4647L34.3341 30.0498C34.6942 29.9064 35.0993 29.929 35.4443 30.1253C35.7369 30.2989 35.9469 30.5707 36.0369 30.9028C36.1269 31.2349 36.0819 31.5746 35.9094 31.8765L35.9169 31.8916ZM36.2545 27.3853C35.8644 27.3853 35.4968 27.2041 35.2568 26.8946H32.1137C31.6786 26.8946 31.326 26.5399 31.326 26.1021C31.326 25.6643 31.6786 25.3095 32.1137 25.3095H35.2568C35.4968 25 35.8644 24.8188 36.2545 24.8188C36.9596 24.8188 37.5297 25.3925 37.5297 26.1021C37.5297 26.8116 36.9596 27.3853 36.2545 27.3853Z" fill="#F6BFC1"/>
</g>
<defs>
<clipPath id="clip0_42_449">
<rect width="52" height="50" fill="white"/>
</clipPath>
</defs>
</svg>
