<svg width="521" height="20" viewBox="0 0 521 20" fill="none" xmlns="http://www.w3.org/2000/svg">
<g clip-path="url(#clip0_57_1880)">
<path d="M12.3443 0.448971L10.5466 13.6476C9.99264 17.7385 7.61928 19.5567 3.83384 19.5567C2.29685 19.5567 1.01513 19.2481 0.472023 19.0068C-0.0602188 17.2784 -0.109098 15.5107 0.151592 13.7262C0.596937 14.0461 1.57453 14.4669 2.60099 14.4669C4.38781 14.4669 4.75712 13.2997 5.09927 10.7744L5.82703 5.43214L6.48962 0.572428C9.3735 0.572428 11.497 0.499476 12.3443 0.443359V0.448971Z" fill="#2D1100"/>
<path d="M22.7837 15.4938H18.2922L16.9182 19.3097L11.3242 19.1526L20.1714 0.572325C21.9962 0.572325 23.6255 0.52182 25.5047 0.280518L29.6703 19.1526L23.1476 19.5342L22.7837 15.4938ZM22.4579 11.8911L21.8822 5.51621L19.5848 11.8911H22.4579Z" fill="#2D1100"/>
<path d="M47.7002 6.02694C47.7002 10.6005 44.0016 14.523 39.0431 14.523C38.6847 14.523 38.3208 14.4893 37.9623 14.4388L37.3215 19.147C35.3065 19.3939 33.3948 19.4444 31.4668 19.2649L33.9434 1.09989C35.1328 0.796863 37.5496 0.392822 39.8143 0.392822C44.9086 0.392822 47.6948 2.38497 47.6948 6.03255L47.7002 6.02694ZM42.0628 6.84063C42.0628 5.47139 41.3839 4.7587 40.1999 4.7587C39.7872 4.7587 39.3744 4.83166 39.0485 4.92144L38.3534 10.0393C38.6629 10.1178 38.9453 10.1459 39.1354 10.1459C40.9277 10.1459 42.0628 8.86084 42.0628 6.84063Z" fill="#2D1100"/>
<path d="M56.688 15.4938H52.1965L50.8225 19.3097L45.2285 19.1526L54.0811 0.572325C55.9059 0.572325 57.5353 0.52182 59.4144 0.280518L63.58 19.1526L57.0573 19.5342L56.6934 15.4938H56.688ZM56.3676 11.8911L55.7919 5.51621L53.4946 11.8911H56.3676Z" fill="#2D1100"/>
<path d="M83.5346 0.448968L80.9929 19.1527L76.5883 19.3715L71.6678 9.29857L70.9835 14.3379L70.3372 19.0741C69.2401 19.321 67.323 19.3715 65.4004 19.192L66.0575 14.3379L67.9313 0.561201C69.8864 0.561201 71.5212 0.510696 72.2164 0.465803L77.2455 10.5388L78.6033 0.566813C81.4871 0.566813 82.7852 0.521919 83.5401 0.437744L83.5346 0.448968Z" fill="#2D1100"/>
<path d="M104.662 8.77098L108.664 19.3434L102.153 19.7306L99.6162 11.3018L97.9434 12.3849L96.9984 19.3434C94.9455 19.5903 92.9958 19.6464 91.0352 19.4612L93.6203 0.409586C96.564 0.409586 98.7255 0.336634 99.5836 0.280518L98.5409 7.95167L100.425 6.80128L104.254 0.409586H110.663L104.656 8.77098H104.662Z" fill="#2D1100"/>
<path d="M120.237 15.6174H115.659L114.258 19.5062L108.561 19.3491L117.582 0.409723C119.439 0.409723 121.101 0.359218 123.013 0.112305L127.254 19.3435L120.607 19.7307L120.237 15.6174ZM119.906 11.9417L119.319 5.44901L116.979 11.9417H119.906Z" fill="#2D1100"/>
<path d="M147.594 0.280518L145.004 19.3434L140.512 19.5678L135.494 9.30409L134.793 14.4388L134.136 19.2648C133.017 19.5117 131.062 19.5678 129.102 19.3827L129.775 14.4388L131.681 0.403974C133.675 0.403974 135.336 0.353469 136.048 0.308576L141.175 10.5723L142.56 0.409586C145.503 0.409586 146.823 0.364693 147.594 0.280518Z" fill="#2D1100"/>
<path d="M158.667 15.6174H154.089L152.687 19.5062L146.99 19.3491L156.011 0.409723C157.869 0.409723 159.531 0.359218 161.442 0.112305L165.684 19.3435L159.036 19.7307L158.667 15.6174ZM158.336 11.9417L157.749 5.44901L155.408 11.9417H158.336Z" fill="#2D1100"/>
<path d="M182.701 19.3434C181.392 19.495 180.186 19.5286 179.019 19.4164L178.237 18.2548C177.221 19.0965 175.804 19.7531 174.06 19.7531C170.161 19.7531 167.146 16.6667 167.146 11.5881C167.146 5.15713 172.051 0 177.998 0C180.404 0 182.272 0.841751 183.097 1.68911C183.016 2.70483 182.413 5.14029 181.398 6.9248C180.979 6.15039 179.768 5.13468 177.938 5.13468C175 5.13468 173.104 7.49158 173.104 10.5163C173.104 13.092 174.527 14.5567 176.955 14.5567C177.237 14.5567 177.509 14.5342 177.77 14.4949L178.085 12.1605H175.782C176.091 11.0213 176.553 9.8541 176.705 8.73737H184.146L182.701 19.349V19.3434Z" fill="#2D1100"/>
<path d="M195.294 15.6174H190.716L189.314 19.5062L183.617 19.3491L192.633 0.409723C194.49 0.409723 196.152 0.359218 198.064 0.112305L202.305 19.3435L195.658 19.7307L195.288 15.6174H195.294ZM194.963 11.9417L194.376 5.44901L192.035 11.9417H194.963Z" fill="#2D1100"/>
<path d="M230.379 0.409688L222.613 19.3435H217.301L215.683 8.92259L211.485 19.3435H206.618L203.762 0.398464C206.265 0.398464 208.025 0.291843 209.861 0.0561523L210.893 11.908L215.151 0.409688H219.523L220.946 12.5533L224.926 0.409688H230.379Z" fill="#2D1100"/>
<path d="M238.722 15.6174H234.143L232.742 19.5062L227.045 19.3491L236.066 0.409723C237.923 0.409723 239.585 0.359218 241.497 0.112305L245.739 19.3435L239.091 19.7307L238.722 15.6174ZM238.39 11.9417L237.804 5.44901L235.463 11.9417H238.39Z" fill="#2D1100"/>
<path d="M266.757 5.39843H261.234L260.734 9.07408H264.97C264.894 10.6005 264.416 12.2447 264.118 13.8272H260.082L259.974 14.624L259.3 19.596C257.22 19.8485 255.238 19.9046 253.25 19.7194L255.879 0.387207H267.653C267.572 1.99776 267.067 3.72615 266.757 5.39282V5.39843Z" fill="#2D1100"/>
<path d="M280.862 5.15152H275.371L274.98 8.04154H279.901C279.841 9.24804 279.461 10.5387 279.233 11.7845H274.475L274.073 14.7306H280.123C280.042 16.3019 279.553 17.9854 279.249 19.6072H267.371L269.983 0.398438H281.714C281.638 1.92481 281.161 3.56903 280.862 5.15152Z" fill="#2D1100"/>
<path d="M282.507 19.2705C281.947 17.4691 281.899 15.6341 282.17 13.7767C283.012 14.3042 284.815 15.0112 286.667 15.0112C288.291 15.0112 289.154 14.4781 289.154 13.642C289.154 12.8844 288.432 12.486 287.091 11.8462C285.771 11.2177 283.224 10.1178 283.224 6.70034C283.224 2.83951 286.477 0 291.452 0C293.429 0 294.759 0.471381 295.492 0.824916C295.411 2.42985 294.879 4.15825 294.569 5.82492C293.966 5.22447 292.136 4.51178 290.588 4.51178C289.415 4.51178 289.073 4.93266 289.073 5.44893C289.073 6.24579 289.85 6.63861 291.164 7.30079C292.56 8.00786 294.998 9.16947 294.998 12.7385C294.998 16.9416 291.674 20 286.526 20C284.63 20 283.24 19.596 282.518 19.2705H282.507Z" fill="#2D1100"/>
<path d="M312.383 5.65096H307.582L305.687 19.6016C303.606 19.8541 301.624 19.9102 299.636 19.725L301.548 5.65096H296.486C296.812 3.90012 297.377 2.08194 297.464 0.392822H313.328C313.241 2.08194 312.714 3.90012 312.388 5.65096H312.383Z" fill="#2D1100"/>
<path d="M321.394 0.263672L318.765 19.6015C316.685 19.854 314.703 19.9101 312.715 19.725L315.343 0.39274C318.325 0.39274 320.519 0.319789 321.394 0.263672Z" fill="#2D1100"/>
<path d="M341.342 0.392853L332.56 19.6016H326.798L323.197 0.392853C325.315 0.392853 327.211 0.336736 329.389 0.0561523L330.953 13.3839L335.634 0.392853H341.342Z" fill="#2D1100"/>
<path d="M349.493 15.8194H344.85L343.427 19.7644L337.643 19.6016L346.794 0.392874C348.678 0.392874 350.368 0.342369 352.306 0.0898438L356.613 19.6016L349.868 19.9944L349.493 15.8194ZM349.156 12.0932L348.564 5.50511L346.191 12.0932H349.156Z" fill="#2D1100"/>
<path d="M370.891 19.6015H358.492L361.105 0.39274C364.086 0.39274 366.28 0.319789 367.155 0.263672L365.238 14.3434H371.831C371.744 16.0325 371.217 17.8507 370.891 19.6015Z" fill="#2D1100"/>
<path d="M413.046 5.01146L411.075 19.5064C409.516 19.6972 408.028 19.7365 406.54 19.5962L407.328 13.7937H403.841L403.064 19.5008C401.506 19.6916 400.017 19.7309 398.529 19.5906L400.501 5.10125C402.738 5.10125 404.379 5.04513 405.036 5.00024L404.297 10.4099H407.784L408.506 5.09564C410.744 5.09564 412.384 5.03952 413.041 4.99463L413.046 5.01146Z" fill="#2E3191"/>
<path d="M421.454 16.6668H417.973L416.908 19.6242L412.574 19.5063L419.434 5.11241C420.846 5.11241 422.111 5.07312 423.567 4.88794L426.793 19.512L421.736 19.8094L421.454 16.6781V16.6668ZM421.204 13.8778L420.759 8.93957L418.977 13.8778H421.199H421.204Z" fill="#2E3191"/>
<path d="M438.426 5.10663C440.663 5.10663 441.668 5.07296 442.255 5.00562L440.283 19.5006L436.867 19.6745L433.055 11.8687L432.522 15.7744L432.023 19.4444C431.17 19.6352 429.687 19.6745 428.199 19.5342L428.71 15.7744L430.16 5.10101C431.675 5.10101 432.941 5.06173 433.478 5.02806L437.378 12.8339L438.431 5.10663H438.426Z" fill="#2E3191"/>
<path d="M443.074 13.9058C443.074 8.8385 446.914 4.80371 451.221 4.80371C454.36 4.80371 456.483 7.12694 456.483 10.6679C456.483 15.6567 452.584 19.8037 448.19 19.8037C445.073 19.8037 443.074 17.4075 443.074 13.9002V13.9058ZM451.791 12.3346C452.008 10.4939 451.558 8.7431 450.238 8.7431C449.059 8.7431 447.989 10.2414 447.75 12.2728C447.533 14.1135 447.984 15.8643 449.314 15.8643C450.493 15.8643 451.552 14.366 451.786 12.3346H451.791Z" fill="#2E3191"/>
<path d="M463.79 5.01123L461.818 19.5062C460.259 19.697 458.771 19.7363 457.283 19.596L459.255 5.10663C461.492 5.10663 463.132 5.05051 463.79 5.00562V5.01123Z" fill="#2E3191"/>
<path d="M482.086 19.1079H471.653C471.175 17.7836 471.116 16.5939 471.192 15.5333C473.777 14.3156 477.339 12.0092 477.339 10.2527C477.339 9.60736 476.867 9.27066 476.107 9.27066C474.781 9.27066 473.473 10.219 472.864 10.9317C472.734 9.74204 472.767 8.36718 472.94 6.80714C473.755 6.01589 475.889 4.89917 478.48 4.89917C481.369 4.89917 482.412 6.45921 482.412 8.45697C482.412 10.9934 480.598 13.0249 478.692 14.2987H483.319C483.118 15.8644 482.499 17.503 482.086 19.1079Z" fill="#2E3191"/>
<path d="M507.209 19.1079H496.776C496.298 17.7836 496.239 16.5939 496.315 15.5333C498.9 14.3156 502.463 12.0092 502.463 10.2527C502.463 9.60736 501.99 9.27066 501.23 9.27066C499.905 9.27066 498.596 10.219 497.987 10.9317C497.857 9.74204 497.89 8.36718 498.063 6.80714C498.878 6.01589 501.012 4.89917 503.603 4.89917C506.492 4.89917 507.535 6.45921 507.535 8.45697C507.535 10.9934 505.721 13.0249 503.815 14.2987H508.442C508.241 15.8644 507.622 17.503 507.209 19.1079Z" fill="#2E3191"/>
<path d="M483.965 13.7881C483.965 8.87224 487.441 4.90479 491.221 4.90479C493.996 4.90479 495.832 7.20557 495.832 10.6062C495.832 15.4772 492.318 19.4839 488.5 19.4839C485.741 19.4839 483.965 17.1719 483.965 13.7937V13.7881ZM490.813 12.1663C491.112 9.99457 490.721 9.00131 490.281 9.00131C489.765 9.00131 489.276 10.1517 488.999 12.1887C488.679 14.3773 489.043 15.3762 489.483 15.3762C489.999 15.3762 490.547 14.2089 490.819 12.1663H490.813Z" fill="#2E3191"/>
<path d="M384.572 13.7376L384.512 14.0967L384.099 16.5378L383.953 17.4076C383.806 18.2886 383.871 19.2146 383.985 19.5064C383.296 19.6074 382.215 19.7421 381.759 19.7421C380.737 19.7421 380.298 19.3156 380.58 17.6377L380.765 16.5322L381.177 14.0911L381.232 13.76C381.46 12.3403 381.4 11.4929 381.291 11.2684C381.976 11.1001 383.057 10.8756 383.518 10.8756C384.539 10.8756 384.979 11.3246 384.572 13.732V13.7376ZM383.926 6.85767C384.871 6.85767 385.555 7.44128 385.555 8.26058C385.555 9.30436 384.55 10.1068 383.48 10.1068C382.535 10.1068 381.867 9.50638 381.867 8.68707C381.867 7.63769 382.856 6.85767 383.92 6.85767H383.926Z" fill="#2E3191"/>
<path d="M394 14.2147L393.604 16.5267L393.452 17.4077C393.305 18.2775 393.365 19.2091 393.484 19.5009C392.8 19.6019 391.719 19.7422 391.258 19.7422C390.237 19.7422 389.791 19.3157 390.079 17.649L390.269 16.5267L390.59 14.658C390.682 14.1305 390.541 13.7938 390.226 13.7938C389.645 13.7938 389.167 14.86 388.944 16.5267C388.749 17.9689 388.705 19.0014 388.732 19.3718C387.548 19.5514 386.44 19.5963 385.354 19.5009C385.338 19.1642 385.398 18.126 385.615 16.5267L385.99 13.7601C386.185 12.3348 386.142 11.493 386.055 11.2685C386.739 11.1002 387.82 10.8757 388.281 10.8757C389.112 10.8757 389.498 11.1619 389.438 12.5648C390.025 11.4706 391.035 10.8757 392.067 10.8757C393.533 10.8757 394.364 12.0879 394.006 14.2147H394Z" fill="#2E3191"/>
<path d="M518.99 13.2663C519.935 13.2663 520.435 13.2046 520.956 13.1092C520.896 14.2034 520.896 14.5626 520.896 14.8824C520.896 15.3426 520.918 15.9992 520.994 16.6165C520.337 16.5772 519.701 16.5772 519.044 16.5772C519.066 17.6546 519.104 18.7321 519.142 19.4279C518.349 19.3662 517.985 19.3493 517.328 19.3493C516.671 19.3493 515.688 19.3718 514.857 19.4503C514.955 18.5132 514.971 17.5592 515.009 16.6221C514.064 16.5996 513.217 16.5828 512.483 16.5828C511.424 16.5828 510.67 16.6221 510.012 16.7006C509.839 15.6625 509.605 14.5906 509.377 13.5132C510.36 12.3965 514.352 6.9756 514.971 5.49973C515.509 5.56146 516.627 5.56146 517.17 5.56146C517.806 5.56146 518.463 5.53901 519.196 5.46045C519.06 6.69502 519.001 9.16977 519.001 10.3033L518.979 13.2719L518.99 13.2663ZM515.074 10.0171C514.341 11.0946 513.472 12.3067 512.701 13.2663H515.074V10.0171Z" fill="#2E3191"/>
</g>
<defs>
<clipPath id="clip0_57_1880">
<rect width="521" height="20" fill="white"/>
</clipPath>
</defs>
</svg>
