<svg width="32" height="30" viewBox="0 0 32 30" fill="none" xmlns="http://www.w3.org/2000/svg">
<path d="M29.8257 11.3587L30.6428 8.83152C30.6428 8.83152 28.4039 6.14583 24.7478 7.30978C23.1922 7.80797 21.7611 8.67301 20.6255 9.50634C21.0733 8.20199 21.4657 6.61685 21.4657 5.0317C21.4657 1.25906 18.1696 0 18.1696 0L15.9723 1.54438L13.775 0C13.775 0 10.4789 1.25906 10.4789 5.0317C10.4789 6.63949 10.8759 8.24275 11.3329 9.55616C10.2066 8.73188 8.78938 7.88043 7.25216 7.38678C3.59608 6.22283 1.35718 8.90851 1.35718 8.90851L2.17426 11.4357L0 13.0072C0 13.0072 0.1985 16.4719 3.8592 17.6359C5.41489 18.1295 7.09059 18.2563 8.50779 18.2382C7.36295 19.0353 6.0981 20.0906 5.14714 21.3768C2.88517 24.4293 4.80092 27.346 4.80092 27.346L7.50144 27.3641L8.35545 29.8777C8.35545 29.8777 11.7761 30.7609 14.0381 27.7083C14.9983 26.4085 15.6399 24.8822 16.0554 23.5553C16.4755 24.8687 17.1079 26.3768 18.0589 27.6585C20.3208 30.7111 23.7415 29.8279 23.7415 29.8279L24.5955 27.3143L27.296 27.2962C27.296 27.2962 29.2072 24.3795 26.9498 21.327C25.9896 20.0272 24.7063 18.9629 23.5476 18.1612C24.951 18.1793 26.6082 18.048 28.1454 17.5589C31.8015 16.3949 32.0046 12.9303 32.0046 12.9303L29.8304 11.3587H29.8257ZM20.7363 12.4366C20.7686 12.2056 20.9071 12.0018 21.1194 11.8795C21.4934 11.6667 21.9735 11.7935 22.1904 12.1603C22.4074 12.5272 22.2781 12.9982 21.9042 13.2111C21.6965 13.3288 21.4472 13.3469 21.221 13.2563L19.5453 14.2029C19.4714 14.2482 19.3883 14.2663 19.3053 14.2663C19.1391 14.2663 18.9729 14.1803 18.8852 14.0308C18.8205 13.9221 18.8021 13.7908 18.8344 13.6685C18.8667 13.5462 18.9498 13.442 19.0606 13.3786L20.7363 12.4321V12.4366ZM17.5326 12.1784L18.502 10.5344C18.4143 10.317 18.4282 10.0725 18.5482 9.86413C18.6544 9.6875 18.8205 9.56069 19.0237 9.50634C19.2268 9.45199 19.4345 9.47917 19.6192 9.58333C19.9931 9.7962 20.1223 10.2672 19.9054 10.6341C19.7853 10.8379 19.5776 10.9737 19.3376 11.01L18.3681 12.654C18.3035 12.7627 18.1973 12.8442 18.0727 12.8759C18.0312 12.885 17.9896 12.894 17.9481 12.894C17.865 12.894 17.7819 12.8714 17.708 12.8306C17.4772 12.6993 17.3987 12.4094 17.5326 12.183V12.1784ZM18.382 15.5797C18.382 16.8705 17.311 17.9212 15.9954 17.9212C14.6797 17.9212 13.6088 16.8705 13.6088 15.5797C13.6088 14.2889 14.6797 13.2382 15.9954 13.2382C17.311 13.2382 18.382 14.2889 18.382 15.5797ZM16.0785 8.61413C16.5124 8.61413 16.8632 8.95833 16.8632 9.38406C16.8632 9.61957 16.7525 9.84149 16.5632 9.98641V11.8841C16.5632 12.1467 16.3462 12.3596 16.0785 12.3596C15.8107 12.3596 15.5938 12.1467 15.5938 11.8841V9.98641C15.4045 9.84149 15.2937 9.61957 15.2937 9.38406C15.2937 8.95833 15.6445 8.61413 16.0785 8.61413ZM12.5193 9.50634C12.6994 9.40217 12.9117 9.375 13.1148 9.42935C13.3179 9.4837 13.4841 9.61051 13.5903 9.78714C13.7103 9.99094 13.7288 10.2355 13.6365 10.4574L14.6013 12.1014C14.6659 12.2101 14.6844 12.3415 14.652 12.4638C14.6197 12.5861 14.5366 12.6902 14.4259 12.7536C14.352 12.7944 14.2689 12.817 14.1858 12.817C14.1443 12.817 14.1027 12.8125 14.0612 12.7989C13.9365 12.7672 13.8304 12.6857 13.7657 12.577L12.8009 10.933C12.5655 10.9013 12.3531 10.7654 12.2331 10.5571C12.0162 10.1902 12.1454 9.7192 12.5193 9.50634ZM9.89267 12.029C9.99885 11.8524 10.165 11.7255 10.3681 11.6712C10.5713 11.6168 10.7836 11.644 10.9636 11.7482C11.1714 11.8659 11.3099 12.0697 11.3468 12.3053L13.0225 13.2518C13.1333 13.3152 13.2164 13.4194 13.2487 13.5417C13.281 13.6639 13.2672 13.7908 13.1979 13.904C13.1102 14.058 12.944 14.1395 12.7778 14.1395C12.6947 14.1395 12.6117 14.1168 12.5378 14.0761L10.8621 13.1295C10.6405 13.2156 10.3912 13.202 10.1789 13.0842C9.80496 12.8714 9.67571 12.4004 9.89267 12.0335V12.029ZM8.90017 15.5027C8.90017 15.077 9.25101 14.7328 9.68494 14.7328C9.92498 14.7328 10.1512 14.8415 10.2989 15.0272H12.2331C12.5009 15.0272 12.7178 15.24 12.7178 15.5027C12.7178 15.7654 12.5009 15.9783 12.2331 15.9783H10.2989C10.1512 16.1639 9.92498 16.2726 9.68494 16.2726C9.25101 16.2726 8.90017 15.9284 8.90017 15.5027ZM10.8806 19.2799C10.7605 19.3478 10.6267 19.3841 10.4882 19.3841C10.4189 19.3841 10.3497 19.375 10.2851 19.3569C10.0819 19.3025 9.91575 19.1757 9.80958 18.9991C9.7034 18.8225 9.67571 18.6141 9.7311 18.4149C9.7865 18.2156 9.91575 18.0525 10.0958 17.9484C10.3035 17.8306 10.5528 17.8125 10.779 17.9031L12.4547 16.952C12.6855 16.8207 12.981 16.9022 13.1148 17.1286C13.1795 17.2373 13.1979 17.3687 13.161 17.4909C13.1287 17.6132 13.0456 17.7174 12.9348 17.7808L11.2591 18.7319C11.2268 18.9629 11.0883 19.1667 10.8759 19.2889L10.8806 19.2799ZM14.4628 18.9855L13.498 20.6295C13.5857 20.8469 13.5718 21.0915 13.4518 21.2998C13.3087 21.5444 13.041 21.6848 12.7732 21.6848C12.6394 21.6848 12.5055 21.6531 12.3808 21.5806C12.2008 21.4764 12.0716 21.3134 12.0162 21.1141C11.9608 20.9149 11.9885 20.7111 12.0946 20.5299C12.2147 20.3261 12.4224 20.1902 12.6624 20.154L13.6272 18.51C13.7611 18.2835 14.0565 18.2065 14.2874 18.3333C14.5182 18.4647 14.5967 18.7545 14.4628 18.981V18.9855ZM15.9169 22.5498C15.483 22.5498 15.1321 22.2056 15.1321 21.7799C15.1321 21.5444 15.2429 21.3225 15.4322 21.1775V19.2799C15.4322 19.0172 15.6492 18.8043 15.9169 18.8043C16.1847 18.8043 16.4016 19.0172 16.4016 19.2799V21.1775C16.5909 21.3225 16.7017 21.5444 16.7017 21.7799C16.7017 22.2056 16.3508 22.5498 15.9169 22.5498ZM19.8407 21.1911C19.7853 21.3904 19.6561 21.5534 19.4761 21.6576C19.356 21.7255 19.2222 21.7618 19.0837 21.7618C19.0144 21.7618 18.9452 21.7527 18.8806 21.7346C18.6774 21.6803 18.5113 21.5534 18.4051 21.3768C18.2851 21.173 18.2666 20.9284 18.3589 20.7065L17.3941 19.0625C17.2602 18.8361 17.3387 18.5417 17.5695 18.4149C17.6803 18.3514 17.8142 18.3333 17.9388 18.365C18.0635 18.3967 18.1696 18.4783 18.2343 18.587L19.1991 20.231C19.4345 20.2627 19.6422 20.3986 19.7669 20.6069C19.8731 20.7835 19.9007 20.9918 19.8454 21.1911H19.8407ZM22.1027 19.135C21.9965 19.3116 21.8304 19.4384 21.6272 19.4928C21.558 19.5109 21.4887 19.5199 21.4241 19.5199C21.2902 19.5199 21.1564 19.4837 21.0317 19.4158C20.824 19.298 20.6855 19.0942 20.6486 18.8587L18.9729 17.9076C18.8621 17.8442 18.779 17.74 18.7467 17.6178C18.7144 17.4955 18.7328 17.3687 18.7928 17.2554C18.9267 17.029 19.2222 16.952 19.453 17.0788L21.1287 18.0299C21.3503 17.9438 21.5995 17.9574 21.8119 18.0752C21.9919 18.1793 22.1212 18.3424 22.1766 18.5417C22.232 18.7409 22.2043 18.9447 22.0981 19.1259L22.1027 19.135ZM22.3104 16.4312C22.0704 16.4312 21.8442 16.3225 21.6965 16.1368H19.7623C19.4945 16.1368 19.2776 15.9239 19.2776 15.6612C19.2776 15.3986 19.4945 15.1857 19.7623 15.1857H21.6965C21.8442 15 22.0704 14.8913 22.3104 14.8913C22.7444 14.8913 23.0952 15.2355 23.0952 15.6612C23.0952 16.087 22.7444 16.4312 22.3104 16.4312Z" fill="#F6BFC1"/>
</svg>
